<svg xmlns="http://www.w3.org/2000/svg" viewBox="0 0 1440 320">
  <path fill="#273036" fill-opacity="1" d="M0,288L24,277.3C48,267,96,245,144,245.3C192,245,240,267,288,240C336,213,384,139,432,117.3C480,96,528,128,576,165.3C624,203,672,245,720,218.7C768,192,816,96,864,74.7C912,53,960,107,1008,138.7C1056,171,1104,181,1152,186.7C1200,192,1248,192,1296,197.3C1344,203,1392,213,1416,218.7L1440,224L1440,0L1416,0C1392,0,1344,0,1296,0C1248,0,1200,0,1152,0C1104,0,1056,0,1008,0C960,0,912,0,864,0C816,0,768,0,720,0C672,0,624,0,576,0C528,0,480,0,432,0C384,0,336,0,288,0C240,0,192,0,144,0C96,0,48,0,24,0L0,0Z"></path>
</svg>